<mxfile host="app.diagrams.net" modified="2023-06-19T01:09:43.739Z" agent="Mozilla/5.0 (Windows NT 10.0; Win64; x64) AppleWebKit/537.36 (KHTML, like Gecko) Chrome/114.0.0.0 Safari/537.36" etag="GiVhnLNSGSIaQeRL2OGg" version="21.4.0" type="github">
  <diagram name="Page-1" id="929967ad-93f9-6ef4-fab6-5d389245f69c">
    <mxGraphModel dx="1434" dy="731" grid="1" gridSize="10" guides="1" tooltips="1" connect="1" arrows="1" fold="1" page="1" pageScale="1.5" pageWidth="1169" pageHeight="826" background="none" math="0" shadow="0">
      <root>
        <mxCell id="0" style=";html=1;" />
        <mxCell id="1" style=";html=1;" parent="0" />
        <mxCell id="1672d66443f91eb5-23" value="Title" style="text;strokeColor=none;fillColor=none;html=1;fontSize=24;fontStyle=1;verticalAlign=middle;align=center;" parent="1" vertex="1">
          <mxGeometry x="120" y="40" width="1510" height="40" as="geometry" />
        </mxCell>
        <mxCell id="g43YezjUdcOCX8W5xUnA-20" value="&lt;font style=&quot;font-size: 24px;&quot;&gt;Task&lt;/font&gt;" style="swimlane;fontStyle=1;align=center;verticalAlign=top;childLayout=stackLayout;horizontal=1;startSize=40;horizontalStack=0;resizeParent=1;resizeParentMax=0;resizeLast=0;collapsible=1;marginBottom=0;whiteSpace=wrap;html=1;" vertex="1" parent="1">
          <mxGeometry x="680" y="520" width="320" height="200" as="geometry">
            <mxRectangle x="760" y="350" width="70" height="30" as="alternateBounds" />
          </mxGeometry>
        </mxCell>
        <mxCell id="g43YezjUdcOCX8W5xUnA-21" value="&lt;font style=&quot;font-size: 18px;&quot;&gt;- id: int&lt;br&gt;- priority: int&lt;br&gt;- status: bool&lt;br&gt;- name: string&lt;br&gt;- description: string&lt;/font&gt;" style="text;strokeColor=none;fillColor=none;align=left;verticalAlign=top;spacingLeft=4;spacingRight=4;overflow=hidden;rotatable=0;points=[[0,0.5],[1,0.5]];portConstraint=eastwest;whiteSpace=wrap;html=1;" vertex="1" parent="g43YezjUdcOCX8W5xUnA-20">
          <mxGeometry y="40" width="320" height="120" as="geometry" />
        </mxCell>
        <mxCell id="g43YezjUdcOCX8W5xUnA-22" value="" style="line;strokeWidth=1;fillColor=none;align=left;verticalAlign=middle;spacingTop=-1;spacingLeft=3;spacingRight=3;rotatable=0;labelPosition=right;points=[];portConstraint=eastwest;strokeColor=inherit;" vertex="1" parent="g43YezjUdcOCX8W5xUnA-20">
          <mxGeometry y="160" width="320" height="8" as="geometry" />
        </mxCell>
        <mxCell id="g43YezjUdcOCX8W5xUnA-23" value="&lt;font style=&quot;font-size: 18px;&quot;&gt;+ print (): void&lt;/font&gt;" style="text;strokeColor=none;fillColor=none;align=left;verticalAlign=top;spacingLeft=4;spacingRight=4;overflow=hidden;rotatable=0;points=[[0,0.5],[1,0.5]];portConstraint=eastwest;whiteSpace=wrap;html=1;" vertex="1" parent="g43YezjUdcOCX8W5xUnA-20">
          <mxGeometry y="168" width="320" height="32" as="geometry" />
        </mxCell>
        <mxCell id="g43YezjUdcOCX8W5xUnA-27" value="&lt;font style=&quot;font-size: 18px;&quot;&gt;BugTask&lt;/font&gt;" style="swimlane;fontStyle=1;align=center;verticalAlign=top;childLayout=stackLayout;horizontal=1;startSize=40;horizontalStack=0;resizeParent=1;resizeParentMax=0;resizeLast=0;collapsible=1;marginBottom=0;whiteSpace=wrap;html=1;" vertex="1" parent="1">
          <mxGeometry x="240" y="510" width="280" height="220" as="geometry" />
        </mxCell>
        <mxCell id="g43YezjUdcOCX8W5xUnA-28" value="&lt;font style=&quot;font-size: 18px;&quot;&gt;- id: int&lt;br style=&quot;&quot;&gt;&lt;/font&gt;&lt;span style=&quot;font-size: 18px;&quot;&gt;- priority: int&lt;/span&gt;&lt;br style=&quot;font-size: 18px;&quot;&gt;&lt;span style=&quot;font-size: 18px;&quot;&gt;- status: bool&lt;/span&gt;&lt;br style=&quot;font-size: 18px;&quot;&gt;&lt;span style=&quot;font-size: 18px;&quot;&gt;- name: string&lt;/span&gt;&lt;br style=&quot;font-size: 18px;&quot;&gt;&lt;span style=&quot;font-size: 18px;&quot;&gt;- description: string&lt;br&gt;- severity: string&lt;br&gt;&lt;/span&gt;" style="text;strokeColor=none;fillColor=none;align=left;verticalAlign=top;spacingLeft=4;spacingRight=4;overflow=hidden;rotatable=0;points=[[0,0.5],[1,0.5]];portConstraint=eastwest;whiteSpace=wrap;html=1;" vertex="1" parent="g43YezjUdcOCX8W5xUnA-27">
          <mxGeometry y="40" width="280" height="140" as="geometry" />
        </mxCell>
        <mxCell id="g43YezjUdcOCX8W5xUnA-29" value="" style="line;strokeWidth=1;fillColor=none;align=left;verticalAlign=middle;spacingTop=-1;spacingLeft=3;spacingRight=3;rotatable=0;labelPosition=right;points=[];portConstraint=eastwest;strokeColor=inherit;" vertex="1" parent="g43YezjUdcOCX8W5xUnA-27">
          <mxGeometry y="180" width="280" height="8" as="geometry" />
        </mxCell>
        <mxCell id="g43YezjUdcOCX8W5xUnA-30" value="&lt;font style=&quot;font-size: 18px;&quot;&gt;+ method(type): type&lt;/font&gt;" style="text;strokeColor=none;fillColor=none;align=left;verticalAlign=top;spacingLeft=4;spacingRight=4;overflow=hidden;rotatable=0;points=[[0,0.5],[1,0.5]];portConstraint=eastwest;whiteSpace=wrap;html=1;" vertex="1" parent="g43YezjUdcOCX8W5xUnA-27">
          <mxGeometry y="188" width="280" height="32" as="geometry" />
        </mxCell>
        <mxCell id="g43YezjUdcOCX8W5xUnA-39" value="" style="endArrow=diamondThin;endFill=1;endSize=24;html=1;rounded=0;" edge="1" parent="1">
          <mxGeometry width="160" relative="1" as="geometry">
            <mxPoint x="520" y="619" as="sourcePoint" />
            <mxPoint x="680" y="619" as="targetPoint" />
          </mxGeometry>
        </mxCell>
      </root>
    </mxGraphModel>
  </diagram>
</mxfile>
